<svg xmlns="http://www.w3.org/2000/svg" xmlns:xlink="http://www.w3.org/1999/xlink" viewBox="0 0 1601 1601"><defs><style>.cls-1{isolation:isolate;}.cls-2{fill:url(#linear-gradient);}.cls-3{opacity:0.55;}.cls-4{opacity:0.8;mix-blend-mode:multiply;}.cls-5{fill:#510100;}.cls-6{fill:#fff;}</style><linearGradient id="linear-gradient" x1="800.5" y1="1582" x2="800.5" y2="19" gradientUnits="userSpaceOnUse"><stop offset="0" stop-color="#d9a828"/><stop offset="0.5" stop-color="#be0502"/><stop offset="1" stop-color="#580001"/></linearGradient></defs><title>Asset 3</title><g class="cls-1"><g id="Layer_2" data-name="Layer 2"><g id="Layer_2-2" data-name="Layer 2"><path id="ELLIPSE" class="cls-2" d="M1582,800.5c0,430.92-350.58,781.5-781.5,781.5S19,1231.42,19,800.5,369.58,19,800.5,19,1582,369.58,1582,800.5Z"/><g class="cls-3"><g class="cls-4"><path class="cls-5" d="M1369.64,311c-13.72-45.45-31.87-65.95-41.74-79.16s-15.49-16.46-36.19-10.93S1187.52,275.7,1130.94,313,999.85,427.22,977.18,449.12,878.83,567.28,857,592.13s-19.71,21.11-89.1,69.74S641,714.78,621,717s-58.47-11.31-58.47-11.31a79.12,79.12,0,0,0-8,11.64c-4.34,7.5-22.57,28.21-22.57,28.21L525.43,733s-5.62-3.25-6.71-1.38-17.64,11.05-27.6,15.29-5.52,3.06-34.51,1.3-17.76-42.78-15-56.19,24.24-39.74,26-45-1.29-10.75-11.24-6.5-31.62,65.48-32.5,80-2.85,30.86-3.54,34.21-12.91,5-12.91,5l-15.28-3.84-7.49,19.43L360.79,769l-4.23,13.8s-17.55-6.4-22.78-8.17-35.6-20.59-35.6-20.59l-42.66,71.6s1.48-.4,3.95,14.79-5.41,33.13-14.37,53-124.74,209.17-124.74,209.17l-14.22,47.27q13.28,25.91,24.13,53.24c2.72,5,5.35,10.13,7.93,15.25a617.52,617.52,0,0,1,94.87,126.38q9.95,11.08,19.27,22.52,8.19,9,15.84,18.26c5.26-11.73,10.29-20.63,14.47-25.26,20.79-23,49.68-27.53,64.57-25.17s45,26,45,26l8.08-5.33s73.9-114.8,88.39-137.68,35.49-9.48,47.42-6.33,77.31,28.46,77.31,28.46,4.93,6.6,27.7-9,150.21-125.67,159-134.35-6.92-37.76-6.92-37.76S720.32,893.2,719.53,890.25s3.34-23.07,14-30.67,36.48,6.1,40.92,4.91.59-9.66.78-20.8,15.17-26.23,22.17-29.69,33.92,8.37,39.15,10.14,5.13-4.54,9.55-29.48,34-32.85,41.79-33.34,36.39,23.55,47.14,22.26a25.69,25.69,0,0,0,16.56-9.18s6.09-60.24,51.32-110.35S1124,577.83,1159.44,562s66.15-19.25,94.25-26.76,73.35-10.09,95.93-14.53,26-21.21,26-21.21c1.77-5.23,6.19-53.93,8.05-76.61S1383.36,356.47,1369.64,311ZM762.3,1080s2.27,2.56-2.46,8.58-135,123.2-135,123.2-70.31-31.92-82.74-42.86c0,0-10.55-9.86-2.38-32.63s28.87-52.07,28.87-52.07l16.76,3.44s18.63-19.23,39.43-18.45,39,3.83,50.89,24.43,14.11,23.16,13.23,37.66,7.69-6.81,7.69-6.81,5.22-22-3.67-43.38-20.23-34.2-35.9-39.52-22-5.22-22.78-8.17-8.68-8.77,1.07-25.64,23.45-42.7,23.45-42.7,16.66-2.87,29.48,9.55,19.23,18.63,24.56,26.71S762.3,1080,762.3,1080Z"/><path class="cls-5" d="M1512.58,1153.14a77.52,77.52,0,0,1,4.59-11.12,60.8,60.8,0,0,1-4.73-5.7s3.65-4.14,4.33-7.49-.5-7.79-.5-7.79a11.85,11.85,0,0,0,4-2.66c2.56-2.27-.89-9.27-.89-9.27s8.77-8.68,9.86-10.55.69-3.35-.1-6.31-11.64-8-11.64-8-8.77,8.68-11.33,10.95-6.41-6.21-9.07-10.25l-13.32-20.21,3.25-5.62c1.08-1.87-1.87-1.08-1.87-1.08a90.6,90.6,0,0,1,7.29-8.28c2.56-2.27-1.19-4.44-1.19-4.44l-2.27-2.56s7.19-14.6,7.88-17.95-6.71-1.38-6.71-1.38-6.6,4.93-10.65,7.6-15.58,1-17.45-.09.29-4.83,1.38-6.71-.79-3-2.66-4-1.18-4.44-1.18-4.44c4.34-7.5.78-20.8,0-23.76s-5.52,3.06-5.52,3.06c-3.25,5.62-16.17,10.66-13.6,8.39s-2.57-21.49-2.57-21.49c2.86-7.1-3.37-48.21-3.37-48.21l2.56-2.27c3.65-4.14-3.77-49.69-3.77-49.69l2.17-3.75c1.08-1.87-4.75-41.51-4.75-41.51l2.56-2.27c2.56-2.27-4.16-51.17-4.16-51.17,2.56-2.27,1.57-17.85.28-28.59a124.75,124.75,0,0,0-2.47-15.18,4.74,4.74,0,0,1,.69-3.35c1.08-1.87.39-22.28-.21-36.38s-3.95-14.79-3.95-14.79l1.77-5.23c1.77-5.23-3.27-41.9-3.27-41.9s1.08-1.87,2.46-8.58-1.88-24.85-3.17-35.59-4.24-10-2.08-13.7a12,12,0,0,0,1-8.18l-3.56-37.07c1.77-5.23-1.09-21.89-2.09-37.47-.58-9.07-2.05-11.45-2.9-11.94,1.35-.55,2.41-2.48,4.07-7.39,1.77-5.23.49-16-.51-31.55s-5.82-15.87-5.82-15.87l.88-14.49s2.55-26-4.6-39-23.22-1.56-23.22-1.56L1379,387.73l-2.26,21.2.62,61.62s.89,9.27,2.08,13.7,5.33,8.08,5.33,8.08a45.21,45.21,0,0,0-2.07,10.06c-.29,4.83,1.59,29.68,2.38,32.63s3.06,5.52.1,6.31-1.67,11.54-1.67,11.54l3.17,35.59s-1,8.18-1.67,11.54,3.17,35.59,3.56,37.07l2,7.39s.4,1.48-1.38,6.71,2.09,37.47,2.09,37.47a72.1,72.1,0,0,1-1,8.18c-.69,3.35,1.69,36,2.48,38.94s2.37,8.87,1.29,10.75,2.19,43.78,2.19,43.78-1.08,1.87-1.38,6.71,4.85,47.82,4.85,47.82A18.94,18.94,0,0,0,1398,850c-.69,3.35,4.35,40,4.35,40a18.94,18.94,0,0,0-1.77,5.23c-.69,3.35,5.93,45.94,5.93,45.94s-2.46,8.58-2.76,13.41,2.77,34.11,2.77,34.11l-8.67,15s-4.83-.29-20.6,11.84-20.79,23-21.88,24.85-8.48,3.85-11.73,9.47,1.49,23.37,1.88,24.85,4.24,10,6.12,11,3.25-5.62,7.59-13.12,9.66.59,12.33,4.63,2.67,27.8.51,31.55-9.37-5.42-11.24-6.5-4.83-.29-6.31.1.1,6.31.89,9.27,9.86,13.21,13.22,13.9,7-3.45,10-4.24,8.28,7.29,13.22,13.9,2.18,20-1.86,22.68-14.89-2.36-17.85-1.57.5,7.79.5,7.79c2.66,4,22.59,19.32,28.9,19.21s8.08-5.33,11.73-9.47,10-4.24,10-4.24c18.54-1.78,36.78,1.27,43.09,1.17s25.94,20,29.29,20.69a10.81,10.81,0,0,0,1.88.19q1.1-2.5,2.38-4.94a77.16,77.16,0,0,1,5.4-12.65A76.49,76.49,0,0,1,1512.58,1153.14ZM1406.33,555.63c1.35,5.41,1.81,11.88-.21,17.18-.87,2.28-3,3.86-5.55,3.16-2.19-.6-4-3.27-3.16-5.55,1.5-3.91,1.2-8.46.2-12.46C1396.2,552.31,1404.92,550,1406.33,555.63Zm-16.86-153.84c.72-3.76,6.57-4.45,8.25-1.09a34.2,34.2,0,0,1,3.39,20.11,3.49,3.49,0,0,1-1.44,2.28c-.7,4.14-7.54,5.3-8.84.38C1388.9,416.12,1388,409.3,1389.46,401.78Zm.75,71.82a23.26,23.26,0,0,1-.67-2.72c-3.58-6.79-2.17-16.53-.51-23.94a3.85,3.85,0,0,1,3.23-3.17,5.6,5.6,0,0,1,4.76-2.25c12.23.26,8.35,27.22,5.46,34a4.51,4.51,0,0,1-5.1,2.09,16.35,16.35,0,0,1-2.06-.93A4.46,4.46,0,0,1,1390.22,473.6Zm5.63,52.26c-1.7-8.8-.64-17.7-1.62-26.55-.64-5.77,8.4-5.64,9,.07.89,8-.22,16.2,1.32,24.15C1405.67,529.22,1396.95,531.57,1395.84,525.86Zm2.21,99c-1.88-7.4-3.71-22.08,6-24.83a4.64,4.64,0,0,1,5.06,2.08c4.28,6.47,4.94,15,2.45,22.26a4.66,4.66,0,0,1-6.35,2.72C1402.89,628.79,1399,628.47,1398.05,624.85Zm5.11,28.08c.83-5.74,9.54-3.3,8.71,2.39,0,.24-.06.48-.09.72a4.23,4.23,0,0,1,1.67,3.42,68.34,68.34,0,0,0,.53,8.46,4.92,4.92,0,0,1-1.76,4.84c1.11,5.5-7.4,7.71-8.75,2.13C1401.7,667.58,1402.09,660.32,1403.16,652.93Zm0,69.66c.08-7.62-1-14.74,2.16-21.95,1.71-4,7.1-2.11,8.27,1.1,2.7,7.34,3.75,15.11,1.65,22.74-.93,3.39-4.47,3.85-6.8,2.45C1405.91,727.3,1403.09,725.85,1403.12,722.59Zm5.54,28.29c1.93-2.24,5.71-1.48,7.11.9,4.22,7.18,2.63,14.77,1.38,22.54a3.58,3.58,0,0,1-2.46,3.08c-2,2.4-6.82,2.48-8.09-1.48C1404.23,768.52,1403.24,757.16,1408.66,750.88Zm3.4,48.22c1.91-1.13,5.2-.61,6.18,1.61,3.61,8.16,3.07,16.13.8,24.59-1.41,5.23-9,3.52-8.87-1.28C1406.68,816.15,1403.37,804.24,1412.06,799.1Zm-1.34,53.62a4.56,4.56,0,0,1,8.72,0c1.84,6,1.8,12.23,2.47,18.38a3.54,3.54,0,0,1-2.39,4c-1.77,4.11-9,3.56-8.64-1.65C1411.32,866.53,1408.27,859.54,1410.71,852.72Zm3.52,46.6a4.56,4.56,0,0,1,7.57,2,56.41,56.41,0,0,1,1.53,20.52A5,5,0,0,1,1423,923c-.62,4.18-7.52,5.37-8.85.44C1412.4,916.76,1408.16,905,1414.23,899.32Zm12.18,70.93a4.13,4.13,0,0,1-1.31,3.15c.83,5.49-7.62,7.7-8.75,2.08-1.59-7.92-3.32-17.19-.36-25,1.56-4.1,7.34-4.48,8.72,0C1426.66,956.85,1426.42,963.72,1426.42,970.25Z"/><path class="cls-5" d="M1368.86,331.83s19.91-8.49,29.88,11,9.39,52.94-2.44,56.1-25.14,6.71-26.72.8,8.77-8.68,8.77-8.68,18.54-1.78,17.64-11-3.17-35.59-9.48-35.49-10.45-3.55-17.85-1.57S1368.86,331.83,1368.86,331.83Z"/></g><path class="cls-6" d="M1353.64,287c-13.72-45.45-31.87-65.95-41.74-79.16s-15.49-16.46-36.19-10.93S1171.52,251.7,1114.94,289,983.85,403.22,961.18,425.12,862.83,543.28,841,568.13s-19.71,21.11-89.1,69.74S625,690.78,605,693s-58.47-11.31-58.47-11.31a79.12,79.12,0,0,0-8,11.64c-4.34,7.5-22.57,28.21-22.57,28.21L509.43,709s-5.62-3.25-6.71-1.38-17.64,11.05-27.6,15.29-5.52,3.06-34.51,1.3-17.76-42.78-15-56.19,24.24-39.74,26-45-1.29-10.75-11.24-6.5-31.62,65.48-32.5,80-2.85,30.86-3.54,34.21-12.91,5-12.91,5l-15.28-3.84-7.49,19.43L344.79,745l-4.23,13.8s-17.55-6.4-22.78-8.17-35.6-20.59-35.6-20.59l-42.66,71.6s1.48-.4,3.95,14.79-5.41,33.13-14.37,53-124.74,209.17-124.74,209.17l-14.22,47.27q13.28,25.91,24.13,53.24c2.72,5,5.35,10.13,7.93,15.25a617.52,617.52,0,0,1,94.87,126.38q9.95,11.08,19.27,22.52,8.19,9,15.84,18.26c5.26-11.73,10.29-20.63,14.47-25.26,20.79-23,49.68-27.53,64.57-25.17s45,26,45,26l8.08-5.33s73.9-114.8,88.39-137.68,35.49-9.48,47.42-6.33,77.31,28.46,77.31,28.46,4.93,6.6,27.7-9,150.21-125.67,159-134.35-6.92-37.76-6.92-37.76S704.32,869.2,703.53,866.25s3.34-23.07,14-30.67,36.48,6.1,40.92,4.91.59-9.66.78-20.8,15.17-26.23,22.17-29.69,33.92,8.37,39.15,10.14,5.13-4.54,9.55-29.48,34-32.85,41.79-33.34,36.39,23.55,47.14,22.26a25.69,25.69,0,0,0,16.56-9.18s6.09-60.24,51.32-110.35S1108,553.83,1143.44,538s66.15-19.25,94.25-26.76,73.35-10.09,95.93-14.53,26-21.21,26-21.21c1.77-5.23,6.19-53.93,8.05-76.61S1367.36,332.47,1353.64,287ZM746.3,1056s2.27,2.56-2.46,8.58-135,123.2-135,123.2-70.31-31.92-82.74-42.86c0,0-10.55-9.86-2.38-32.63s28.87-52.07,28.87-52.07l16.76,3.44s18.63-19.23,39.43-18.45,39,3.83,50.89,24.43,14.11,23.16,13.23,37.66,7.69-6.81,7.69-6.81,5.22-22-3.67-43.38-20.23-34.2-35.9-39.52-22-5.22-22.78-8.17-8.68-8.77,1.07-25.64,23.45-42.7,23.45-42.7,16.66-2.87,29.48,9.55,19.23,18.63,24.56,26.71S746.3,1056,746.3,1056Z"/><path class="cls-6" d="M1496.58,1129.14a77.52,77.52,0,0,1,4.59-11.12,60.8,60.8,0,0,1-4.73-5.7s3.65-4.14,4.33-7.49-.5-7.79-.5-7.79a11.85,11.85,0,0,0,4-2.66c2.56-2.27-.89-9.27-.89-9.27s8.77-8.68,9.86-10.55.69-3.35-.1-6.31-11.64-8-11.64-8-8.77,8.68-11.33,10.95-6.41-6.21-9.07-10.25l-13.32-20.21,3.25-5.62c1.08-1.87-1.87-1.08-1.87-1.08a90.6,90.6,0,0,1,7.29-8.28c2.56-2.27-1.19-4.44-1.19-4.44l-2.27-2.56s7.19-14.6,7.88-17.95-6.71-1.38-6.71-1.38-6.6,4.93-10.65,7.6-15.58,1-17.45-.09.29-4.83,1.38-6.71-.79-3-2.66-4-1.18-4.44-1.18-4.44c4.34-7.5.78-20.8,0-23.76s-5.52,3.06-5.52,3.06c-3.25,5.62-16.17,10.66-13.6,8.39s-2.57-21.49-2.57-21.49c2.86-7.1-3.37-48.21-3.37-48.21l2.56-2.27c3.65-4.14-3.77-49.69-3.77-49.69l2.17-3.75c1.08-1.87-4.75-41.51-4.75-41.51l2.56-2.27c2.56-2.27-4.16-51.17-4.16-51.17,2.56-2.27,1.57-17.85.28-28.59a124.75,124.75,0,0,0-2.47-15.18,4.74,4.74,0,0,1,.69-3.35c1.08-1.87.39-22.28-.21-36.38s-3.95-14.79-3.95-14.79l1.77-5.23c1.77-5.23-3.27-41.9-3.27-41.9s1.08-1.87,2.46-8.58-1.88-24.85-3.17-35.59-4.24-10-2.08-13.7a12,12,0,0,0,1-8.18l-3.56-37.07c1.77-5.23-1.09-21.89-2.09-37.47-.58-9.07-2.05-11.45-2.9-11.94,1.35-.55,2.41-2.48,4.07-7.39,1.77-5.23.49-16-.51-31.55s-5.82-15.87-5.82-15.87l.88-14.49s2.55-26-4.6-39-23.22-1.56-23.22-1.56L1363,363.73l-2.26,21.2.62,61.62s.89,9.27,2.08,13.7,5.33,8.08,5.33,8.08a45.21,45.21,0,0,0-2.07,10.06c-.29,4.83,1.59,29.68,2.38,32.63s3.06,5.52.1,6.31-1.67,11.54-1.67,11.54l3.17,35.59s-1,8.18-1.67,11.54,3.17,35.59,3.56,37.07l2,7.39s.4,1.48-1.38,6.71,2.09,37.47,2.09,37.47a72.1,72.1,0,0,1-1,8.18c-.69,3.35,1.69,36,2.48,38.94s2.37,8.87,1.29,10.75,2.19,43.78,2.19,43.78-1.08,1.87-1.38,6.71,4.85,47.82,4.85,47.82A18.94,18.94,0,0,0,1382,826c-.69,3.35,4.35,40,4.35,40a18.94,18.94,0,0,0-1.77,5.23c-.69,3.35,5.93,45.94,5.93,45.94s-2.46,8.58-2.76,13.41,2.77,34.11,2.77,34.11l-8.67,15s-4.83-.29-20.6,11.84-20.79,23-21.88,24.85-8.48,3.85-11.73,9.47,1.49,23.37,1.88,24.85,4.24,10,6.12,11,3.25-5.62,7.59-13.12,9.66.59,12.33,4.63,2.67,27.8.51,31.55-9.37-5.42-11.24-6.5-4.83-.29-6.31.1.1,6.31.89,9.27,9.86,13.21,13.22,13.9,7-3.45,10-4.24,8.28,7.29,13.22,13.9,2.18,20-1.86,22.68-14.89-2.36-17.85-1.57.5,7.79.5,7.79c2.66,4,22.59,19.32,28.9,19.21s8.08-5.33,11.73-9.47,10-4.24,10-4.24c18.54-1.78,36.78,1.27,43.09,1.17s25.94,20,29.29,20.69a10.81,10.81,0,0,0,1.88.19q1.1-2.5,2.38-4.94a77.16,77.16,0,0,1,5.4-12.65A76.49,76.49,0,0,1,1496.58,1129.14ZM1390.33,531.63c1.35,5.41,1.81,11.88-.21,17.18-.87,2.28-3,3.86-5.55,3.16-2.19-.6-4-3.27-3.16-5.55,1.5-3.91,1.2-8.46.2-12.46C1380.2,528.31,1388.92,526,1390.33,531.63Zm-16.86-153.84c.72-3.76,6.57-4.45,8.25-1.09a34.2,34.2,0,0,1,3.39,20.11,3.49,3.49,0,0,1-1.44,2.28c-.7,4.14-7.54,5.3-8.84.38C1372.9,392.12,1372,385.3,1373.46,377.78Zm.75,71.82a23.26,23.26,0,0,1-.67-2.72c-3.58-6.79-2.17-16.53-.51-23.94a3.85,3.85,0,0,1,3.23-3.17,5.6,5.6,0,0,1,4.76-2.25c12.23.26,8.35,27.22,5.46,34a4.51,4.51,0,0,1-5.1,2.09,16.35,16.35,0,0,1-2.06-.93A4.46,4.46,0,0,1,1374.22,449.6Zm5.63,52.26c-1.7-8.8-.64-17.7-1.62-26.55-.64-5.77,8.4-5.64,9,.07.89,8-.22,16.2,1.32,24.15C1389.67,505.22,1380.95,507.57,1379.84,501.86Zm2.21,99c-1.88-7.4-3.71-22.08,6-24.83a4.64,4.64,0,0,1,5.06,2.08c4.28,6.47,4.94,15,2.45,22.26a4.66,4.66,0,0,1-6.35,2.72C1386.89,604.79,1383,604.47,1382.05,600.85Zm5.11,28.08c.83-5.74,9.54-3.3,8.71,2.39,0,.24-.06.48-.09.72a4.23,4.23,0,0,1,1.67,3.42,68.34,68.34,0,0,0,.53,8.46,4.92,4.92,0,0,1-1.76,4.84c1.11,5.5-7.4,7.71-8.75,2.13C1385.7,643.58,1386.09,636.32,1387.16,628.93Zm0,69.66c.08-7.62-1-14.74,2.16-21.95,1.71-4,7.1-2.11,8.27,1.1,2.7,7.34,3.75,15.11,1.65,22.74-.93,3.39-4.47,3.85-6.8,2.45C1389.91,703.3,1387.09,701.85,1387.12,698.59Zm5.54,28.29c1.93-2.24,5.71-1.48,7.11.9,4.22,7.18,2.63,14.77,1.38,22.54a3.58,3.58,0,0,1-2.46,3.08c-2,2.4-6.82,2.48-8.09-1.48C1388.23,744.52,1387.24,733.16,1392.66,726.88Zm3.4,48.22c1.91-1.13,5.2-.61,6.18,1.61,3.61,8.16,3.07,16.13.8,24.59-1.41,5.23-9,3.52-8.87-1.28C1390.68,792.15,1387.37,780.24,1396.06,775.1Zm-1.34,53.62a4.56,4.56,0,0,1,8.72,0c1.84,6,1.8,12.23,2.47,18.38a3.54,3.54,0,0,1-2.39,4c-1.77,4.11-9,3.56-8.64-1.65C1395.32,842.53,1392.27,835.54,1394.71,828.72Zm3.52,46.6a4.56,4.56,0,0,1,7.57,2,56.41,56.41,0,0,1,1.53,20.52A5,5,0,0,1,1407,899c-.62,4.18-7.52,5.37-8.85.44C1396.4,892.76,1392.16,881,1398.23,875.32Zm12.18,70.93a4.13,4.13,0,0,1-1.31,3.15c.83,5.49-7.62,7.7-8.75,2.08-1.59-7.92-3.32-17.19-.36-25,1.56-4.1,7.34-4.48,8.72,0C1410.66,932.85,1410.42,939.72,1410.42,946.25Z"/><path class="cls-6" d="M1352.86,307.83s19.91-8.49,29.88,11,9.39,52.94-2.44,56.1-25.14,6.71-26.72.8,8.77-8.68,8.77-8.68,18.54-1.78,17.64-11-3.17-35.59-9.48-35.49-10.45-3.55-17.85-1.57S1352.86,307.83,1352.86,307.83Z"/></g><path class="cls-6" d="M800.5,1601C359.1,1601,0,1241.9,0,800.5S359.1,0,800.5,0,1601,359.1,1601,800.5,1241.9,1601,800.5,1601Zm0-1563C380.06,38,38,380.06,38,800.5S380.06,1563,800.5,1563,1563,1220.94,1563,800.5,1220.94,38,800.5,38Z"/><g class="cls-4"><polygon class="cls-5" points="315 1217 315 458 465 458 465 1089 612 1089 679 1028 679 458 830 458 830 1093 683 1217 315 1217"/><rect class="cls-5" x="857" y="458" width="148" height="759"/><rect class="cls-5" x="1031" y="458" width="148" height="759"/><rect class="cls-5" x="1203" y="458" width="148" height="759"/></g><polygon class="cls-6" points="282 1180 282 421 432 421 432 1052 579 1052 646 991 646 421 797 421 797 1056 650 1180 282 1180"/><rect class="cls-6" x="824" y="421" width="148" height="759"/><rect class="cls-6" x="998" y="421" width="148" height="759"/><rect class="cls-6" x="1170" y="421" width="148" height="759"/></g></g></g></svg>